<mxfile host="app.diagrams.net" modified="2023-11-02T09:58:39.570Z" agent="Mozilla/5.0 (Macintosh; Intel Mac OS X 10.15; rv:109.0) Gecko/20100101 Firefox/119.0" version="22.0.8" etag="yUfj4Uc7PEa6cDR_xxk-" type="github">
  <diagram name="Page-1" id="-hrCW1JOt1rqmKrmkx0s">
    <mxGraphModel>
      <root>
        <mxCell id="0" />
        <mxCell id="1" parent="0" />
      </root>
    </mxGraphModel>
  </diagram>
</mxfile>
